# xmcd
#
# Track frame offsets:
#	150
#	23836
#	51883
#	74061
#	97293
#	130012
#	155453
#	174781
#	198460
#	222023
#
# Disc length: 3348 seconds
#
# Revision: 1
# Processed by: cddbd v1.4b42PL1 Copyright (c) Steve Scherf et al.
# Submitted via: audiograbber 1.80
#
DISCID=8c0d120a
DTITLE=John Campbell - Howlin Mercy
DYEAR=1900
DGENRE=
TTITLE0=Ain't afraid of midnight
TTITLE1=When the levee breaks
TTITLE2=Down in the hole
TTITLE3=Look what love can do
TTITLE4=Saddle up my pony
TTITLE5=Firin' Line
TTITLE6=Love's name
TTITLE7=Written in stone
TTITLE8=Wiseblood
TTITLE9=Wolf among the lambs
EXTD=
EXTT0=
EXTT1=
EXTT2=
EXTT3=
EXTT4=
EXTT5=
EXTT6=
EXTT7=
EXTT8=
EXTT9=
PLAYORDER=
